<?xml version="1.0" encoding="UTF-8" standalone="no"?><!DOCTYPE svg PUBLIC "-//W3C//DTD SVG 1.1//EN" "http://www.w3.org/Graphics/SVG/1.1/DTD/svg11.dtd"><svg width="100%" height="100%" viewBox="0 0 144 144" version="1.1" xmlns="http://www.w3.org/2000/svg" xmlns:xlink="http://www.w3.org/1999/xlink" xml:space="preserve" xmlns:serif="http://www.serif.com/" style="fill-rule:evenodd;clip-rule:evenodd;stroke-linejoin:round;stroke-miterlimit:2;"><g id="out"><g id="left"><path d="M-0,72.877c-0,0 17.624,-25.977 27,-35.561c22.717,-23.221 45,-4.5 45,-4.5l-0,85.5c-0,-0 -24.414,-0.436 -42,-10.5c-27.482,-15.728 -30,-34.939 -30,-34.939Z" style="fill:#b91c1c;"/><path d="M72,66.877c-0,0 -5.79,-6.096 -15,-6c-8.971,0.094 -21.508,5.912 -33,9c-12.631,3.395 -24,3 -24,3c-0,0 17.939,4.265 36,0c24.276,-5.733 36,9 36,9l-0,-15Z" style="fill-opacity:0.65;"/></g><g id="right"><path d="M144,72.877c-0,0 -17.624,-25.977 -27,-35.561c-22.717,-23.221 -45,-4.5 -45,-4.5l-0,85.5c-0,-0 24.414,-0.436 42,-10.5c27.482,-15.728 30,-34.939 30,-34.939Z" style="fill:#b91c1c;"/><path d="M72,66.877c-0,0 5.79,-6.096 15,-6c8.971,0.094 21.508,5.912 33,9c12.631,3.395 24,3 24,3c-0,0 -17.939,4.265 -36,0c-24.276,-5.733 -36,9 -36,9l-0,-15Z" style="fill-opacity:0.65;"/></g></g></svg>